PathFileType	4	(X/Y/Z)	T:\Spectrum_Optical_Capture\Spectrum_Demo_10_05_01_TRUECOMBAT\07_Smooth_Trc\TC_Jump_1.trc
DataRate	CameraRate	NumFrames	NumMarkers	Units	OrigDataRate	OrigDataStartFrame	OrigNumFrames
60.0	60.0	       4	46	mm	60.0	229	       913
Frame#	Time	HeadTop			ForeHead			LFrontHead			RFrontHead			TopSpine			Sternum			Scapula			LFShoulder			LShoulder			LBicep			LOuterElbow			LHand			LWristPinky			LWristThumb			RFShoulder			RShoulder			RBicep			ROuterElbow			RHand			RWristPinky			RWristThumb			MiddleBack			LowerBack			Root			Pelvis			LBackWaist			RBackWaist			LFrontWaist			RFrontWaist			Bellymarker			LThigh			LOuterKnee			LAnkle			LHeel			LOuterMeta			LToe			RThigh			ROuterKnee			RAnkle			RHeel			ROuterMeta			RToe			Floor1			Floor2			Floor3			Floor4			
		X1	Y1	Z1	X2	Y2	Z2	X3	Y3	Z3	X4	Y4	Z4	X5	Y5	Z5	X6	Y6	Z6	X7	Y7	Z7	X8	Y8	Z8	X9	Y9	Z9	X10	Y10	Z10	X11	Y11	Z11	X12	Y12	Z12	X13	Y13	Z13	X14	Y14	Z14	X15	Y15	Z15	X16	Y16	Z16	X17	Y17	Z17	X18	Y18	Z18	X19	Y19	Z19	X20	Y20	Z20	X21	Y21	Z21	X22	Y22	Z22	X23	Y23	Z23	X24	Y24	Z24	X25	Y25	Z25	X26	Y26	Z26	X27	Y27	Z27	X28	Y28	Z28	X29	Y29	Z29	X30	Y30	Z30	X31	Y31	Z31	X32	Y32	Z32	X33	Y33	Z33	X34	Y34	Z34	X35	Y35	Z35	X36	Y36	Z36	X37	Y37	Z37	X38	Y38	Z38	X39	Y39	Z39	X40	Y40	Z40	X41	Y41	Z41	X42	Y42	Z42	X43	Y43	Z43	X44	Y44	Z44	X45	Y45	Z45	X46	Y46	Z46	

229	3.800	-2878.03491	1631.38135	-3330.08276	-2805.53955	1508.49597	-3237.41699	-2787.73804	1498.82886	-3356.11963	-2918.92188	1514.35828	-3226.60620	-3006.28101	1344.46350	-3440.29663	-2868.04688	1115.24670	-3280.32837	-3137.15234	1223.44312	-3392.67700	-2822.66919	1229.89941	-3339.62891	-2788.74023	1311.65234	-3491.13428	-2708.58545	1105.19983	-3512.96558	-2759.36377	997.77771	-3566.56055	-2590.96484	838.22668	-3466.55225	-2592.37476	737.68835	-3473.67773	-2514.54443	739.53473	-3403.82715	-2934.39136	1229.65271	-3236.00098	-3077.22241	1322.59021	-3229.26270	-3180.71411	1164.90979	-3220.64380	-3200.06616	1010.13129	-3245.82275	-3114.23169	824.60864	-3102.98901	-3125.04126	731.73151	-3111.85767	-3060.80688	702.47894	-3036.97021	-3030.13818	1264.12427	-3470.94800	-3047.26294	1140.89941	-3492.82422	-3057.39990	1027.42236	-3503.35645	-2913.51953	1049.60486	-3563.98096	-2939.49121	931.38818	-3583.10522	-3156.77832	936.29498	-3393.69824	-2842.17456	914.17889	-3480.62280	-3081.61694	920.35547	-3269.87793	-2880.57666	917.57739	-3282.28003	-2865.98511	650.58136	-3560.13574	-2865.82837	482.96652	-3524.79736	-2961.19897	99.66360	-3585.86523	-3068.80615	38.98064	-3597.46021	-2918.88184	12.39521	-3554.37988	-2884.32202	26.53356	-3429.38306	-3100.42480	666.69763	-3246.14160	-3123.05688	505.54456	-3287.89014	-3214.00659	139.23665	-3386.43872	-3210.26270	57.33441	-3497.06470	-3218.96069	25.16013	-3338.08521	-3112.58716	30.97122	-3277.21362	4200.74072	32.72620	-4241.18408	-3734.32593	-12.21943	-4192.89795	-3782.51001	-16.00390	4948.26563	4163.82324	20.87275	4907.07910	
230	3.817	-2878.14429	1632.78918	-3327.98926	-2806.48706	1509.12891	-3236.37964	-2788.31030	1500.03186	-3355.20801	-2920.32324	1515.71191	-3225.92603	-3008.04321	1346.80908	-3441.39038	-2870.63843	1118.01331	-3281.76465	-3138.99829	1225.84985	-3393.80566	-2824.30298	1232.30884	-3340.25220	-2789.98267	1314.89758	-3490.65698	-2707.10181	1110.40894	-3508.80933	-2751.84106	1000.39410	-3561.25269	-2586.06885	849.69928	-3444.55664	-2584.38672	748.37714	-3444.38379	-2511.54224	756.47833	-3369.78027	-2936.29272	1232.34033	-3236.54224	-3079.30273	1325.07556	-3230.65845	-3180.42627	1165.77747	-3219.57813	-3197.06201	1009.44861	-3239.44189	-3093.11597	835.24371	-3092.16089	-3098.12134	741.98914	-3098.43335	-3027.26196	721.69904	-3022.86328	-3031.39697	1266.78699	-3472.31641	-3048.30811	1143.76245	-3494.01147	-3058.99316	1030.81702	-3505.03174	-2914.05640	1052.68591	-3564.28564	-2941.17627	934.90411	-3585.13062	-3158.87817	939.35364	-3396.16089	-2844.05835	916.84985	-3480.99365	-3083.61646	922.72772	-3272.31177	-2883.30469	919.77100	-3284.56689	-2868.71118	653.64185	-3562.88574	-2869.73682	485.29367	-3528.49390	-2961.87622	100.06937	-3586.65649	-3068.76904	38.63791	-3597.56396	-2919.07568	12.37012	-3554.44482	-2884.57349	26.82528	-3429.61523	-3105.93408	669.35889	-3249.15210	-3127.34082	507.45444	-3291.17505	-3215.03003	139.57664	-3386.67163	-3210.32861	57.79772	-3497.10791	-3219.10400	25.09554	-3338.12817	-3112.72876	31.16141	-3277.13818	4200.68555	32.68696	-4241.18164	-3734.34497	-12.23317	-4192.90576	-3782.48193	-16.02224	4948.21924	4163.78711	20.95603	4907.13818	
231	3.833	-2878.05737	1633.73669	-3325.61597	-2807.34717	1509.30945	-3234.87646	-2789.01855	1500.72546	-3353.84326	-2921.09790	1516.51819	-3224.79272	-3009.44946	1348.70520	-3441.91724	-2872.75342	1120.18787	-3282.88477	-3140.63696	1227.86365	-3394.38843	-2825.83008	1234.24963	-3340.66626	-2790.83130	1317.60034	-3490.13818	-2705.95386	1115.32043	-3504.87183	-2745.44189	1002.92822	-3556.74536	-2583.23633	862.10620	-3423.17993	-2578.09570	760.58710	-3415.36816	-2511.22681	775.92865	-3336.63403	-2938.18188	1234.34363	-3236.94556	-3081.03662	1327.03210	-3231.60742	-3179.92432	1166.44067	-3218.40137	-3193.79834	1008.94641	-3233.26196	-3073.45166	846.84064	-3082.60596	-3072.39966	753.73193	-3086.13574	-2996.03369	742.60187	-3011.01782	-3032.45679	1269.00720	-3473.20605	-3049.19678	1146.12048	-3494.39917	-3060.60474	1033.74573	-3506.00488	-2915.01855	1055.17810	-3564.67285	-2943.32495	937.61633	-3586.79907	-3160.79590	942.11816	-3397.63330	-2845.62866	918.65759	-3481.38696	-3084.08765	925.11157	-3273.94214	-2885.60596	921.31476	-3286.80688	-2870.82544	656.38422	-3565.19458	-2873.08765	487.15149	-3531.71289	-2962.51611	100.19114	-3587.45557	-3068.68530	38.36639	-3597.80957	-2919.41797	12.19456	-3554.50098	-2884.81445	27.14707	-3429.87378	-3111.46362	671.17157	-3252.15356	-3131.42749	508.82364	-3294.81836	-3216.15283	139.24826	-3387.05957	-3210.73022	57.06669	-3497.40039	-3219.47607	24.84031	-3338.40991	-3112.87280	31.58794	-3277.23462	4200.65479	32.65151	-4241.18408	-3734.39136	-12.26617	-4192.87939	-3782.42505	-16.01119	4948.17773	4163.63281	21.10181	4907.23633	
232	3.850	-2877.78345	1634.17688	-3322.99658	-2807.92749	1508.94641	-3232.91919	-2789.74902	1500.88635	-3352.06177	-2921.17700	1516.60632	-3223.00757	-3010.40967	1350.11157	-3441.77808	-2874.25928	1121.47156	-3283.55469	-3141.94116	1229.46252	-3394.45508	-2827.09253	1235.62231	-3340.46191	-2791.27783	1319.73535	-3489.23242	-2704.95630	1119.70898	-3500.80420	-2740.17236	1005.13086	-3552.69751	-2582.24463	875.16406	-3402.65845	-2573.73926	774.20544	-3387.32056	-2513.71191	797.20477	-3305.35742	-2939.91992	1235.62817	-3237.18604	-3082.19482	1328.39844	-3232.01074	-3178.91748	1166.84277	-3216.72900	-3190.26221	1008.52106	-3226.78760	-3055.27002	858.90839	-3074.32104	-3047.34351	766.14856	-3074.45923	-2967.64600	764.25604	-3001.10693	-3033.25781	1270.67468	-3473.52319	-3049.97241	1147.94751	-3494.35156	-3062.07568	1036.07166	-3506.56421	-2916.16821	1057.07300	-3565.05518	-2945.42749	939.51538	-3588.08813	-3162.59961	944.23438	-3398.73022	-2846.98413	919.69775	-3481.99780	-3084.02856	927.24744	-3275.06250	-2887.71582	922.22101	-3288.50830	-2872.54614	658.53821	-3567.07129	-2875.98560	488.52750	-3534.24878	-2963.18896	100.10342	-3588.15820	-3068.53198	38.07502	-3598.06641	-2919.84497	12.04296	-3554.54614	-2884.95630	27.47078	-3430.09082	-3116.42163	672.17139	-3255.05493	-3135.25293	509.65732	-3298.38916	-3217.25635	138.36377	-3387.67114	-3211.34888	55.33977	-3498.01196	-3219.98022	24.48147	-3338.84863	-3113.02393	32.13552	-3277.59424	4200.65283	32.63237	-4241.19092	-3734.44678	-12.30499	-4192.84277	-3782.33643	-15.97206	4948.13037	4163.45215	21.24224	4907.33203	
